<svg width="16" height="16" viewBox="0 0 16 16" fill="none" xmlns="http://www.w3.org/2000/svg">
<path d="M10.5 0.5C13.2614 0.5 15.5 2.73864 15.5 5.5C15.5 8.26136 13.2614 10.5 10.5 10.5C9.96734 10.5 9.45263 10.4177 8.97363 10.2646L8.68359 10.1719L7.42773 11.4277C7.38216 11.4733 7.31922 11.5 7.25 11.5H5.5V13.25C5.5 13.3895 5.38948 13.5 5.25 13.5H3.5V15.25C3.5 15.3895 3.38948 15.5 3.25 15.5H0.75C0.610518 15.5 0.5 15.3895 0.5 15.25V12.75C0.5 12.6808 0.526695 12.6178 0.572266 12.5723L5.82812 7.31641L5.73535 7.02637C5.5823 6.54737 5.5 6.03266 5.5 5.5C5.5 2.73864 7.73864 0.5 10.5 0.5ZM11.75 2.5C11.2859 2.5 10.8409 2.68451 10.5127 3.0127C10.1845 3.34088 10 3.78587 10 4.25C10 4.71413 10.1845 5.15912 10.5127 5.4873C10.8409 5.81549 11.2859 6 11.75 6C12.2141 6 12.6591 5.81549 12.9873 5.4873C13.3155 5.15912 13.5 4.71413 13.5 4.25C13.5 3.78587 13.3155 3.34088 12.9873 3.0127C12.6591 2.68451 12.2141 2.5 11.75 2.5Z" stroke="#3D3D3D"/>
</svg>
