<svg width="16" height="10" viewBox="0 0 16 10" fill="none" xmlns="http://www.w3.org/2000/svg">
<path d="M1.59961 0.5H14.4004C14.9875 0.500223 15.5 1.00458 15.5 1.66699V8.33301C15.5 8.99542 14.9875 9.49978 14.4004 9.5H1.59961C1.01246 9.49978 0.5 8.99542 0.5 8.33301V1.66699C0.5 1.00458 1.01246 0.500223 1.59961 0.5ZM7.5 8.83301H14.9004V1.16699H7.5V8.83301ZM4 2.10449C3.64358 2.10449 3.32668 2.29595 3.14941 2.58691L3.08301 2.71777L1.48242 6.46777C1.28105 6.93914 1.45615 7.49565 1.89551 7.75684L1.9873 7.80469C2.47796 8.03235 3.02707 7.81995 3.27246 7.375L3.31738 7.28223V7.28125L3.41016 7.0625H4.58984L4.68262 7.28125V7.28223C4.90125 7.79338 5.49154 8.04124 6.00879 7.80664C6.49287 7.58697 6.69887 7.03992 6.55273 6.56543L6.51855 6.4707L6.51758 6.46777L4.91699 2.71777C4.78157 2.40056 4.49323 2.16829 4.15039 2.11523L4 2.10449ZM12.6064 4.30371C12.405 4.84729 12.1126 5.34123 11.7441 5.76074L11.375 6.18262L11.835 6.50195C11.8684 6.52519 11.9009 6.54388 11.9229 6.55664V6.55762L12.3945 6.85059V6.85156C12.3949 6.85178 12.3964 6.85199 12.3975 6.85352C12.3988 6.85549 12.4002 6.85922 12.4014 6.86426C12.4035 6.87341 12.4006 6.88061 12.3984 6.88672L11.9395 6.60156H11.9404C11.8386 6.53789 11.7403 6.47212 11.6416 6.40039L11.3457 6.18555L11.0508 6.40234C10.8715 6.53444 10.684 6.65276 10.4873 6.75684L10.2871 6.85645L10.208 6.8916L10.207 6.88965C10.2034 6.88121 10.2035 6.87082 10.207 6.86133C10.2086 6.85721 10.2108 6.85484 10.2119 6.85352C10.2129 6.85247 10.2128 6.85159 10.2129 6.85156V6.85254L10.3027 6.81055L10.3057 6.80859C10.4809 6.72586 10.6572 6.63216 10.8281 6.52051L11.333 6.19043L10.916 5.75488L10.6104 5.4375L10.6035 5.41504C10.6035 5.41018 10.6055 5.40651 10.6064 5.40332L10.9619 5.77344L10.9746 5.78613L11.3447 6.17285L11.7051 5.77637C12.0536 5.3928 12.3367 4.94865 12.541 4.46191L12.6064 4.30371ZM13.1924 3.72949C13.1958 3.73338 13.2002 3.73975 13.2002 3.75C13.2002 3.76025 13.1958 3.76662 13.1924 3.77051H12.8311L12.833 3.76562L12.0781 3.76855L11.1982 3.77051H9.40723C9.40382 3.76659 9.40039 3.76007 9.40039 3.75C9.40039 3.73993 9.40382 3.73341 9.40723 3.72949H13.1924Z" stroke="#3D3D3D"/>
</svg>
